<?xml version="1.0" standalone="no"?>
<!DOCTYPE svg PUBLIC "-//W3C//DTD SVG 20010904//EN"
 "http://www.w3.org/TR/2001/REC-SVG-20010904/DTD/svg10.dtd">
<svg version="1.0" xmlns="http://www.w3.org/2000/svg"
 width="1024.000000pt" height="1024.000000pt" viewBox="0 0 1024.000000 1024.000000"
 preserveAspectRatio="xMidYMid meet">
<metadata>
Created by potrace 1.11, written by Peter Selinger 2001-2013
</metadata>
<g transform="translate(0.000000,1024.000000) scale(0.100000,-0.100000)"
fill="#000000" stroke="none">
<path d="M7 10233 c-4 -3 -7 -2307 -7 -5120 l0 -5113 5120 0 5120 0 0 5120 0
5120 -5113 0 c-2813 0 -5117 -3 -5120 -7z m5538 -1748 c658 -89 1214 -325
1720 -729 129 -102 409 -382 511 -511 362 -453 608 -993 703 -1545 38 -225 46
-322 46 -590 0 -332 -23 -531 -95 -822 -278 -1118 -1124 -2036 -2210 -2399
-382 -128 -673 -174 -1090 -174 -328 0 -538 24 -821 95 -1156 288 -2088 1175
-2433 2313 -58 190 -90 341 -123 577 -24 177 -24 643 0 820 94 670 321 1207
730 1723 103 131 383 411 514 514 559 443 1164 681 1893 747 105 9 540 -3 655
-19z"/>
<path d="M4935 8284 c-269 -27 -374 -43 -530 -79 -469 -110 -896 -320 -1280
-628 -128 -103 -359 -334 -462 -462 -308 -384 -518 -811 -628 -1280 -94 -401
-107 -836 -38 -1255 134 -820 603 -1568 1289 -2058 728 -519 1650 -708 2524
-516 950 209 1750 838 2177 1713 154 316 254 656 300 1022 22 183 22 566 -1
744 -83 642 -321 1189 -729 1675 -514 614 -1234 1002 -2047 1105 -119 15 -490
28 -575 19z m1065 -1640 c30 -9 73 -29 96 -45 52 -35 281 -277 311 -327 12
-20 122 -300 245 -622 l223 -585 0 -80 c0 -142 19 -120 -600 -717 -615 -593
-602 -583 -735 -583 -133 1 -143 8 -481 356 -792 815 -880 909 -905 964 -25
53 -25 59 -24 302 0 136 5 462 10 723 5 261 10 500 10 530 l0 55 143 -3 c127
-3 148 -6 194 -28 64 -31 70 -39 308 -417 99 -158 183 -286 187 -284 3 1 169
160 368 352 199 193 380 361 403 374 81 49 161 60 247 35z m-1331 -2653 c347
-360 630 -658 629 -662 -6 -14 -438 -429 -447 -429 -6 0 -305 305 -665 678
l-656 677 228 222 227 221 27 -26 c14 -15 310 -321 657 -681z"/>
</g>
</svg>
